<?xml version="1.0" encoding="UTF-8" standalone="no"?>
<svg
   xmlns:dc="http://purl.org/dc/elements/1.1/"
   xmlns:cc="http://creativecommons.org/ns#"
   xmlns:rdf="http://www.w3.org/1999/02/22-rdf-syntax-ns#"
   xmlns:svg="http://www.w3.org/2000/svg"
   xmlns="http://www.w3.org/2000/svg"
   xmlns:xlink="http://www.w3.org/1999/xlink"
   xmlns:sodipodi="http://sodipodi.sourceforge.net/DTD/sodipodi-0.dtd"
   xmlns:inkscape="http://www.inkscape.org/namespaces/inkscape"
   inkscape:version="1.0 (4035a4fb49, 2020-05-01)"
   sodipodi:docname="responsive-svg.svg"
   id="svg111"
   version="1.1"
   height="511.99997"
   width="512"
   viewBox="0 0 512 511.99997">
  <metadata
     id="metadata117">
    <rdf:RDF>
      <cc:Work
         rdf:about="">
        <dc:format>image/svg+xml</dc:format>
        <dc:type
           rdf:resource="http://purl.org/dc/dcmitype/StillImage" />
        <dc:title />
      </cc:Work>
    </rdf:RDF>
  </metadata>
  <defs
     id="defs115">
    <linearGradient
       inkscape:collect="always"
       id="linearGradient986">
      <stop
         style="stop-color:#fa0891;stop-opacity:1"
         offset="0"
         id="stop982" />
      <stop
         style="stop-color:#f26127;stop-opacity:1"
         offset="1"
         id="stop984" />
    </linearGradient>
    <linearGradient
       inkscape:collect="always"
       id="linearGradient980">
      <stop
         style="stop-color:#fa0891;stop-opacity:1"
         offset="0"
         id="stop976" />
      <stop
         style="stop-color:#f26127;stop-opacity:1"
         offset="1"
         id="stop978" />
    </linearGradient>
    <linearGradient
       inkscape:collect="always"
       id="linearGradient974">
      <stop
         style="stop-color:#fa0891;stop-opacity:1"
         offset="0"
         id="stop970" />
      <stop
         style="stop-color:#f26127;stop-opacity:1"
         offset="1"
         id="stop972" />
    </linearGradient>
    <linearGradient
       inkscape:collect="always"
       id="linearGradient968">
      <stop
         style="stop-color:#fa0891;stop-opacity:1"
         offset="0"
         id="stop964" />
      <stop
         style="stop-color:#f26127;stop-opacity:1"
         offset="1"
         id="stop966" />
    </linearGradient>
    <linearGradient
       inkscape:collect="always"
       id="linearGradient962">
      <stop
         style="stop-color:#fa0891;stop-opacity:1"
         offset="0"
         id="stop958" />
      <stop
         style="stop-color:#f26127;stop-opacity:1"
         offset="1"
         id="stop960" />
    </linearGradient>
    <linearGradient
       inkscape:collect="always"
       id="linearGradient956">
      <stop
         style="stop-color:#fa0891;stop-opacity:1"
         offset="0"
         id="stop952" />
      <stop
         style="stop-color:#f26127;stop-opacity:1"
         offset="1"
         id="stop954" />
    </linearGradient>
    <linearGradient
       inkscape:collect="always"
       id="linearGradient950">
      <stop
         style="stop-color:#fa0891;stop-opacity:1"
         offset="0"
         id="stop946" />
      <stop
         style="stop-color:#f26127;stop-opacity:1"
         offset="1"
         id="stop948" />
    </linearGradient>
    <linearGradient
       inkscape:collect="always"
       id="linearGradient944">
      <stop
         style="stop-color:#fa0891;stop-opacity:1"
         offset="0"
         id="stop940" />
      <stop
         style="stop-color:#f26127;stop-opacity:1"
         offset="1"
         id="stop942" />
    </linearGradient>
    <linearGradient
       inkscape:collect="always"
       id="linearGradient938">
      <stop
         style="stop-color:#fa0891;stop-opacity:1"
         offset="0"
         id="stop934" />
      <stop
         style="stop-color:#f26127;stop-opacity:1"
         offset="1"
         id="stop936" />
    </linearGradient>
    <linearGradient
       inkscape:collect="always"
       id="linearGradient932">
      <stop
         style="stop-color:#fa0891;stop-opacity:1"
         offset="0"
         id="stop928" />
      <stop
         style="stop-color:#f26127;stop-opacity:1"
         offset="1"
         id="stop930" />
    </linearGradient>
    <linearGradient
       inkscape:collect="always"
       id="linearGradient926">
      <stop
         style="stop-color:#fa0891;stop-opacity:1"
         offset="0"
         id="stop922" />
      <stop
         style="stop-color:#f26127;stop-opacity:1"
         offset="1"
         id="stop924" />
    </linearGradient>
    <linearGradient
       inkscape:collect="always"
       id="linearGradient920">
      <stop
         style="stop-color:#fa0891;stop-opacity:1"
         offset="0"
         id="stop916" />
      <stop
         style="stop-color:#f26127;stop-opacity:1"
         offset="1"
         id="stop918" />
    </linearGradient>
    <linearGradient
       id="linearGradient65"
       inkscape:collect="always">
      <stop
         id="stop61"
         offset="0"
         style="stop-color:#fa0891;stop-opacity:1" />
      <stop
         id="stop63"
         offset="1"
         style="stop-color:#f26127;stop-opacity:1" />
    </linearGradient>
    <linearGradient
       gradientUnits="userSpaceOnUse"
       y2="464.10413"
       x2="240.8922"
       y1="16"
       x1="240.05576"
       id="linearGradient67"
       xlink:href="#linearGradient65"
       inkscape:collect="always" />
    <linearGradient
       gradientUnits="userSpaceOnUse"
       y2="528.11896"
       x2="256.95169"
       y1="16"
       x1="256.05948"
       id="linearGradient69"
       xlink:href="#linearGradient986"
       inkscape:collect="always" />
    <linearGradient
       gradientUnits="userSpaceOnUse"
       y2="528.11896"
       x2="256.95169"
       y1="16"
       x1="256.05948"
       id="linearGradient71"
       xlink:href="#linearGradient980"
       inkscape:collect="always" />
    <linearGradient
       gradientUnits="userSpaceOnUse"
       y2="528.11896"
       x2="256.95169"
       y1="16"
       x1="256.05948"
       id="linearGradient73"
       xlink:href="#linearGradient974"
       inkscape:collect="always" />
    <linearGradient
       gradientUnits="userSpaceOnUse"
       y2="528.11896"
       x2="256.95169"
       y1="16"
       x1="256.05948"
       id="linearGradient75"
       xlink:href="#linearGradient968"
       inkscape:collect="always" />
    <linearGradient
       gradientUnits="userSpaceOnUse"
       y2="528.11896"
       x2="256.95169"
       y1="16"
       x1="256.05948"
       id="linearGradient77"
       xlink:href="#linearGradient962"
       inkscape:collect="always" />
    <linearGradient
       gradientUnits="userSpaceOnUse"
       y2="528.11896"
       x2="256.95169"
       y1="16"
       x1="256.05948"
       id="linearGradient79"
       xlink:href="#linearGradient956"
       inkscape:collect="always" />
    <linearGradient
       gradientUnits="userSpaceOnUse"
       y2="528.11896"
       x2="256.95169"
       y1="16"
       x1="256.05948"
       id="linearGradient81"
       xlink:href="#linearGradient950"
       inkscape:collect="always" />
    <linearGradient
       gradientUnits="userSpaceOnUse"
       y2="528.11896"
       x2="256.95169"
       y1="16"
       x1="256.05948"
       id="linearGradient83"
       xlink:href="#linearGradient944"
       inkscape:collect="always" />
    <linearGradient
       gradientUnits="userSpaceOnUse"
       y2="528.11896"
       x2="256.95169"
       y1="16"
       x1="256.05948"
       id="linearGradient85"
       xlink:href="#linearGradient938"
       inkscape:collect="always" />
    <linearGradient
       gradientUnits="userSpaceOnUse"
       y2="528.11896"
       x2="256.95169"
       y1="16"
       x1="256.05948"
       id="linearGradient87"
       xlink:href="#linearGradient932"
       inkscape:collect="always" />
    <linearGradient
       gradientUnits="userSpaceOnUse"
       y2="528.11896"
       x2="256.95169"
       y1="16"
       x1="256.05948"
       id="linearGradient89"
       xlink:href="#linearGradient926"
       inkscape:collect="always" />
    <linearGradient
       gradientUnits="userSpaceOnUse"
       y2="528.11896"
       x2="256.95169"
       y1="16"
       x1="256.05948"
       id="linearGradient91"
       xlink:href="#linearGradient920"
       inkscape:collect="always" />
  </defs>
  <sodipodi:namedview
     inkscape:current-layer="svg111"
     inkscape:window-maximized="1"
     inkscape:window-y="-8"
     inkscape:window-x="-8"
     inkscape:cy="11.730546"
     inkscape:cx="240"
     inkscape:zoom="1.1208333"
     showgrid="false"
     id="namedview113"
     inkscape:window-height="706"
     inkscape:window-width="1366"
     inkscape:pageshadow="2"
     inkscape:pageopacity="0"
     guidetolerance="10"
     gridtolerance="10"
     objecttolerance="10"
     borderopacity="1"
     bordercolor="#666666"
     pagecolor="#ffffff"
     inkscape:document-rotation="0" />
  <style
     id="style2">
		tspan { white-space:pre }
		.shp0 { fill: #000000 } 
	</style>
  <g
     style="fill-opacity:1;fill:url(#linearGradient67)"
     transform="matrix(1.0666667,0,0,1.1428571,0,-18.285714)"
     id="g7">
    <g
       style="fill-opacity:1;fill:url(#linearGradient67)"
       id="g5">
      <path
         style="fill-opacity:1;fill:url(#linearGradient67)"
         d="m 480,256 v 184 c 0,13.23 -10.77,24 -24,24 h -88 c -13.23,0 -24,-10.77 -24,-24 v -88 h -45.53 l 15.73,57.69 c 1.98,7.27 0.5,14.89 -4.08,20.88 -4.58,5.99 -11.53,9.43 -19.07,9.43 H 224 c 0,13.23 -10.77,24 -24,24 H 24 C 10.77,464 0,453.23 0,440 V 200 C 0,186.77 10.77,176 24,176 V 56 C 24,33.94 41.94,16 64,16 h 352 c 22.06,0 40,17.94 40,40 v 176 c 13.23,0 24,10.77 24,24 z M 208,424 H 16 v 16 c 0,4.41 3.59,8 8,8 h 176 c 4.41,0 8,-3.59 8,-8 z m 0,-192 H 16 v 176 h 192 z m 0,-32 c 0,-4.41 -3.59,-8 -8,-8 H 24 c -4.41,0 -8,3.59 -8,8 v 16 h 192 z m 89.16,208 H 224 v 16 h 67.05 c 2.52,0 4.83,-1.14 6.36,-3.14 1.53,-2 2.02,-4.54 1.36,-6.96 z M 292.8,392 281.89,352 H 224 v 40 z M 344,288 H 224 v 48 h 120 z m 24,-56 h 72 V 56 C 440,42.77 429.23,32 416,32 H 64 C 50.77,32 40,42.77 40,56 v 120 h 160 c 13.23,0 24,10.77 24,24 v 72 h 120 v -16 c 0,-13.23 10.77,-24 24,-24 z m 96,192 H 360 v 16 c 0,4.41 3.59,8 8,8 h 88 c 4.41,0 8,-3.59 8,-8 z m 0,-136 H 360 v 120 h 104 z m 0,-32 c 0,-4.41 -3.59,-8 -8,-8 h -88 c -4.41,0 -8,3.59 -8,8 v 16 h 104 z"
         class="shp0"
         fill-rule="evenodd"
         id="Layer" />
    </g>
  </g>
  <g
     style="fill-opacity:1;fill:url(#linearGradient69)"
     transform="translate(0,-16)"
     id="g13">
    <g
       style="fill-opacity:1;fill:url(#linearGradient69)"
       id="g11">
      <path
         style="fill-opacity:1;fill:url(#linearGradient69)"
         d="m 42.34,346.34 32,-32.01 11.31,11.32 -32,32 z"
         class="shp0"
         id="path9" />
    </g>
  </g>
  <g
     style="fill-opacity:1;fill:url(#linearGradient71)"
     transform="translate(0,-16)"
     id="g19">
    <g
       style="fill-opacity:1;fill:url(#linearGradient71)"
       id="g17">
      <path
         style="fill-opacity:1;fill:url(#linearGradient71)"
         d="m 74.34,370.34 96,-96 11.31,11.31 -96,96 z"
         class="shp0"
         id="path15" />
    </g>
  </g>
  <g
     style="fill-opacity:1;fill:url(#linearGradient73)"
     transform="translate(0,-16)"
     id="g25">
    <g
       style="fill-opacity:1;fill:url(#linearGradient73)"
       id="g23">
      <path
         style="fill-opacity:1;fill:url(#linearGradient73)"
         d="m 90.34,298.35 47.99,-48 11.32,11.31 -48,48 z"
         class="shp0"
         id="path21" />
    </g>
  </g>
  <g
     style="fill-opacity:1;fill:url(#linearGradient75)"
     transform="translate(0,-16)"
     id="g31">
    <g
       style="fill-opacity:1;fill:url(#linearGradient75)"
       id="g29">
      <path
         style="fill-opacity:1;fill:url(#linearGradient75)"
         d="m 378.33,346.35 39.99,-40 11.31,11.32 -39.99,39.99 z"
         class="shp0"
         id="path27" />
    </g>
  </g>
  <g
     style="fill-opacity:1;fill:url(#linearGradient77)"
     transform="translate(0,-16)"
     id="g37">
    <g
       style="fill-opacity:1;fill:url(#linearGradient77)"
       id="g35">
      <path
         style="fill-opacity:1;fill:url(#linearGradient77)"
         d="m 394.32,378.38 40,-39.99 11.31,11.31 -39.99,40 z"
         class="shp0"
         id="path33" />
    </g>
  </g>
  <g
     style="fill-opacity:1;fill:url(#linearGradient79)"
     transform="translate(0,-16)"
     id="g43">
    <g
       style="fill-opacity:1;fill:url(#linearGradient79)"
       id="g41">
      <path
         style="fill-opacity:1;fill:url(#linearGradient79)"
         d="m 210.33,154.34 48,-47.99 11.31,11.31 -47.99,48 z"
         class="shp0"
         id="path39" />
    </g>
  </g>
  <g
     style="fill-opacity:1;fill:url(#linearGradient81)"
     transform="translate(0,-16)"
     id="g49">
    <g
       style="fill-opacity:1;fill:url(#linearGradient81)"
       id="g47">
      <path
         style="fill-opacity:1;fill:url(#linearGradient81)"
         d="m 282.34,138.34 48,-47.99 11.31,11.31 -48,48 z"
         class="shp0"
         id="path45" />
    </g>
  </g>
  <g
     style="fill-opacity:1;fill:url(#linearGradient83)"
     transform="translate(0,-16)"
     id="g55">
    <g
       style="fill-opacity:1;fill:url(#linearGradient83)"
       id="g53">
      <path
         style="fill-opacity:1;fill:url(#linearGradient83)"
         d="m 234.33,186.35 32,-32 11.32,11.32 -32,32 z"
         class="shp0"
         id="path51" />
    </g>
  </g>
  <g
     style="fill-opacity:1;fill:url(#linearGradient85)"
     transform="translate(0,-16)"
     id="g61">
    <g
       style="fill-opacity:1;fill:url(#linearGradient85)"
       id="g59">
      <path
         style="fill-opacity:1;fill:url(#linearGradient85)"
         d="m 274.29,90.45 32.08,-32.08 11.31,11.31 -32.08,32.08 z"
         class="shp0"
         id="path57" />
    </g>
  </g>
  <g
     style="fill-opacity:1;fill:url(#linearGradient87)"
     transform="translate(0,-16)"
     id="g67">
    <g
       style="fill-opacity:1;fill:url(#linearGradient87)"
       id="g65">
      <path
         style="fill-opacity:1;fill:url(#linearGradient87)"
         d="M 56,48 H 72 V 64 H 56 Z"
         class="shp0"
         id="path63" />
    </g>
  </g>
  <g
     style="fill-opacity:1;fill:url(#linearGradient89)"
     transform="translate(0,-16)"
     id="g73">
    <g
       style="fill-opacity:1;fill:url(#linearGradient89)"
       id="g71">
      <path
         style="fill-opacity:1;fill:url(#linearGradient89)"
         d="m 88,48 h 16 V 64 H 88 Z"
         class="shp0"
         id="path69" />
    </g>
  </g>
  <g
     style="fill-opacity:1;fill:url(#linearGradient91)"
     transform="translate(0,-16)"
     id="g79">
    <g
       style="fill-opacity:1;fill:url(#linearGradient91)"
       id="g77">
      <path
         style="fill-opacity:1;fill:url(#linearGradient91)"
         d="m 120,48 h 16 v 16 h -16 z"
         class="shp0"
         id="path75" />
    </g>
  </g>
  <g
     transform="translate(0,-16)"
     id="g81" />
  <g
     transform="translate(0,-16)"
     id="g83" />
  <g
     transform="translate(0,-16)"
     id="g85" />
  <g
     transform="translate(0,-16)"
     id="g87" />
  <g
     transform="translate(0,-16)"
     id="g89" />
  <g
     transform="translate(0,-16)"
     id="g91" />
  <g
     transform="translate(0,-16)"
     id="g93" />
  <g
     transform="translate(0,-16)"
     id="g95" />
  <g
     transform="translate(0,-16)"
     id="g97" />
  <g
     transform="translate(0,-16)"
     id="g99" />
  <g
     transform="translate(0,-16)"
     id="g101" />
  <g
     transform="translate(0,-16)"
     id="g103" />
  <g
     transform="translate(0,-16)"
     id="g105" />
  <g
     transform="translate(0,-16)"
     id="g107" />
  <g
     transform="translate(0,-16)"
     id="g109" />
</svg>
