<?xml version="1.0" encoding="UTF-8" standalone="no"?>
<svg
   xmlns:dc="http://purl.org/dc/elements/1.1/"
   xmlns:cc="http://creativecommons.org/ns#"
   xmlns:rdf="http://www.w3.org/1999/02/22-rdf-syntax-ns#"
   xmlns:svg="http://www.w3.org/2000/svg"
   xmlns="http://www.w3.org/2000/svg"
   xmlns:xlink="http://www.w3.org/1999/xlink"
   xmlns:sodipodi="http://sodipodi.sourceforge.net/DTD/sodipodi-0.dtd"
   xmlns:inkscape="http://www.inkscape.org/namespaces/inkscape"
   inkscape:version="1.0 (4035a4fb49, 2020-05-01)"
   sodipodi:docname="tools-and-utensils-svg.svg"
   id="svg116"
   version="1.1"
   height="512"
   width="512"
   viewBox="0 0 512 512">
  <metadata
     id="metadata122">
    <rdf:RDF>
      <cc:Work
         rdf:about="">
        <dc:format>image/svg+xml</dc:format>
        <dc:type
           rdf:resource="http://purl.org/dc/dcmitype/StillImage" />
        <dc:title />
      </cc:Work>
    </rdf:RDF>
  </metadata>
  <defs
     id="defs120">
    <linearGradient
       id="linearGradient938"
       inkscape:collect="always">
      <stop
         id="stop934"
         offset="0"
         style="stop-color:#fa0891;stop-opacity:1" />
      <stop
         id="stop936"
         offset="1"
         style="stop-color:#f26127;stop-opacity:1" />
    </linearGradient>
    <linearGradient
       gradientUnits="userSpaceOnUse"
       y2="490.00562"
       x2="256.38797"
       y1="25.188053"
       x1="256.38797"
       id="linearGradient940"
       xlink:href="#linearGradient938"
       inkscape:collect="always" />
  </defs>
  <sodipodi:namedview
     inkscape:current-layer="svg116"
     inkscape:window-maximized="1"
     inkscape:window-y="-8"
     inkscape:window-x="-8"
     inkscape:cy="337.6148"
     inkscape:cx="276.62665"
     inkscape:zoom="1.4860291"
     showgrid="false"
     id="namedview118"
     inkscape:window-height="706"
     inkscape:window-width="1366"
     inkscape:pageshadow="2"
     inkscape:pageopacity="0"
     guidetolerance="10"
     gridtolerance="10"
     objecttolerance="10"
     borderopacity="1"
     bordercolor="#666666"
     pagecolor="#ffffff"
     inkscape:document-rotation="0" />
  <style
     id="style67">
		tspan { white-space:pre }
		.shp0 { fill: #000000 } 
	</style>
  <g
     style="fill-opacity:1;fill:url(#linearGradient940)"
     transform="matrix(1,0,0,1.085804,0,-21.965815)"
     id="g84">
    <g
       style="fill-opacity:1;fill:url(#linearGradient940)"
       id="g82">
      <g
         style="fill-opacity:1;fill:url(#linearGradient940)"
         id="g80">
        <path
           style="fill-opacity:1;fill:url(#linearGradient940)"
           d="m 512,68.57 v 275.76 c 0,26.66 -21.68,48.35 -48.34,48.35 H 326.67 c 1.23,26.66 6,52.51 14.23,77.07 h 33.46 c 6.08,0 11.02,4.93 11.02,11.01 0,6.08 -4.94,11.01 -11.02,11.01 H 137.63 c -6.08,0 -11.01,-4.93 -11.01,-11.01 0,-6.08 4.93,-11.01 11.01,-11.01 h 33.47 c 8.22,-24.56 12.99,-50.41 14.23,-77.07 H 48.34 C 21.68,392.68 0,370.99 0,344.33 V 68.57 C 0,41.91 21.68,20.23 48.34,20.23 h 415.32 c 26.66,0 48.34,21.68 48.34,48.34 z M 22.02,320.03 H 489.98 V 68.57 c 0,-14.51 -11.81,-26.32 -26.32,-26.32 H 48.34 c -14.51,0 -26.32,11.81 -26.32,26.32 z m 295.74,149.72 c -7.6,-24.71 -12,-50.53 -13.14,-77.07 h -97.24 c -1.14,26.54 -5.54,52.37 -13.14,77.07 z M 489.98,342.05 H 22.02 v 2.28 c 0,14.52 11.81,26.33 26.32,26.33 h 415.32 c 14.51,0 26.32,-11.81 26.32,-26.33 v 0 z"
           class="shp0"
           fill-rule="evenodd"
           id="Layer" />
        <path
           style="fill-opacity:1;fill:url(#linearGradient940)"
           d="M 402.82,275.99 H 165.73 c -6.08,0 -11.01,4.93 -11.01,11.01 0,6.08 4.93,11.01 11.01,11.01 h 237.09 c 6.08,0 11.01,-4.93 11.01,-11.01 0,-6.08 -4.93,-11.01 -11.01,-11.01 z"
           class="shp0"
           id="path70" />
        <path
           style="fill-opacity:1;fill:url(#linearGradient940)"
           d="m 110.95,275.99 h -1.77 c -6.08,0 -11.01,4.93 -11.01,11.01 0,6.08 4.93,11.01 11.01,11.01 h 1.77 c 6.08,0 11.02,-4.93 11.02,-11.01 0,-6.08 -4.93,-11.01 -11.02,-11.01 z"
           class="shp0"
           id="path72" />
        <path
           style="fill-opacity:1;fill:url(#linearGradient940)"
           d="m 320.97,111.32 64.9,55.49 -64.9,55.49 c -4.63,3.96 -5.17,10.91 -1.22,15.53 2.18,2.55 5.27,3.85 8.38,3.85 2.53,0 5.07,-0.87 7.15,-2.64 l 74.69,-63.86 c 2.45,-2.09 3.86,-5.15 3.86,-8.37 0,-3.22 -1.41,-6.27 -3.86,-8.37 l -74.7,-63.86 c -4.62,-3.95 -11.57,-3.41 -15.52,1.22 -3.95,4.62 -3.41,11.57 1.22,15.52 z"
           class="shp0"
           id="path74" />
        <path
           style="fill-opacity:1;fill:url(#linearGradient940)"
           d="m 102.03,175.18 74.7,63.86 c 2.07,1.78 4.61,2.64 7.14,2.64 3.11,0 6.2,-1.3 8.38,-3.85 3.95,-4.62 3.41,-11.57 -1.22,-15.53 l -64.9,-55.49 64.9,-55.49 c 4.63,-3.95 5.17,-10.9 1.22,-15.53 -3.95,-4.62 -10.9,-5.16 -15.53,-1.21 l -74.69,63.86 c -2.45,2.09 -3.86,5.15 -3.86,8.37 0,3.22 1.41,6.28 3.86,8.37 z"
           class="shp0"
           id="path76" />
        <path
           style="fill-opacity:1;fill:url(#linearGradient940)"
           d="m 224.51,263.54 c 1.14,0.37 2.29,0.54 3.42,0.54 4.63,0 8.95,-2.95 10.46,-7.61 l 56.16,-172.5 c 1.88,-5.79 -1.28,-12 -7.06,-13.88 -5.79,-1.89 -12,1.28 -13.88,7.06 l -56.16,172.51 c -1.88,5.78 1.28,11.99 7.06,13.88 z"
           class="shp0"
           id="path78" />
      </g>
    </g>
  </g>
  <g
     transform="translate(0,-0.23000592)"
     id="g86" />
  <g
     transform="translate(0,-0.23000592)"
     id="g88" />
  <g
     transform="translate(0,-0.23000592)"
     id="g90" />
  <g
     transform="translate(0,-0.23000592)"
     id="g92" />
  <g
     transform="translate(0,-0.23000592)"
     id="g94" />
  <g
     transform="translate(0,-0.23000592)"
     id="g96" />
  <g
     transform="translate(0,-0.23000592)"
     id="g98" />
  <g
     transform="translate(0,-0.23000592)"
     id="g100" />
  <g
     transform="translate(0,-0.23000592)"
     id="g102" />
  <g
     transform="translate(0,-0.23000592)"
     id="g104" />
  <g
     transform="translate(0,-0.23000592)"
     id="g106" />
  <g
     transform="translate(0,-0.23000592)"
     id="g108" />
  <g
     transform="translate(0,-0.23000592)"
     id="g110" />
  <g
     transform="translate(0,-0.23000592)"
     id="g112" />
  <g
     transform="translate(0,-0.23000592)"
     id="g114" />
</svg>
