<?xml version="1.0" encoding="UTF-8" standalone="no"?>
<svg
   xmlns:dc="http://purl.org/dc/elements/1.1/"
   xmlns:cc="http://creativecommons.org/ns#"
   xmlns:rdf="http://www.w3.org/1999/02/22-rdf-syntax-ns#"
   xmlns:svg="http://www.w3.org/2000/svg"
   xmlns="http://www.w3.org/2000/svg"
   xmlns:xlink="http://www.w3.org/1999/xlink"
   xmlns:sodipodi="http://sodipodi.sourceforge.net/DTD/sodipodi-0.dtd"
   xmlns:inkscape="http://www.inkscape.org/namespaces/inkscape"
   inkscape:version="1.0 (4035a4fb49, 2020-05-01)"
   sodipodi:docname="call-answer-svg.svg"
   id="svg41"
   version="1.1"
   height="349"
   width="349"
   viewBox="0 0 349 349">
  <metadata
     id="metadata47">
    <rdf:RDF>
      <cc:Work
         rdf:about="">
        <dc:format>image/svg+xml</dc:format>
        <dc:type
           rdf:resource="http://purl.org/dc/dcmitype/StillImage" />
      </cc:Work>
    </rdf:RDF>
  </metadata>
  <defs
     id="defs45">
    <linearGradient
       id="linearGradient53"
       inkscape:collect="always">
      <stop
         id="stop49"
         offset="0"
         style="stop-color:#fa098f;stop-opacity:1" />
      <stop
         id="stop51"
         offset="1"
         style="stop-color:#f36034;stop-opacity:1" />
    </linearGradient>
    <linearGradient
       gradientUnits="userSpaceOnUse"
       y2="347.05389"
       x2="175.79739"
       y1="0.64869887"
       x1="175.79739"
       id="linearGradient55"
       xlink:href="#linearGradient53"
       inkscape:collect="always" />
  </defs>
  <sodipodi:namedview
     inkscape:current-layer="svg41"
     inkscape:window-maximized="1"
     inkscape:window-y="-8"
     inkscape:window-x="-8"
     inkscape:cy="226.74177"
     inkscape:cx="174.5"
     inkscape:zoom="1.5415473"
     showgrid="false"
     id="namedview43"
     inkscape:window-height="706"
     inkscape:window-width="1366"
     inkscape:pageshadow="2"
     inkscape:pageopacity="0"
     guidetolerance="10"
     gridtolerance="10"
     objecttolerance="10"
     borderopacity="1"
     bordercolor="#666666"
     pagecolor="#ffffff" />
  <style
     id="style2">
		tspan { white-space:pre }
		.shp0 { fill: #000000 } 
	</style>
  <g
     style="fill-opacity:1;fill:url(#linearGradient55)"
     id="g9">
    <g
       style="fill-opacity:1;fill:url(#linearGradient55)"
       id="g7">
      <g
         style="fill-opacity:1;fill:url(#linearGradient55)"
         id="g5">
        <path
           style="fill-opacity:1;fill:url(#linearGradient55)"
           d="M340.27 275.08L286.52 221.32C275.81 210.66 258.08 210.98 247 222.07L219.92 249.14C218.21 248.2 216.44 247.21 214.57 246.17C197.47 236.69 174.07 223.71 149.43 199.06C124.73 174.36 111.73 150.91 102.23 133.8C101.22 131.99 100.26 130.24 99.31 128.58L117.49 110.43L126.42 101.48C137.52 90.38 137.83 72.66 127.15 61.96L73.39 8.19C62.71 -2.49 44.97 -2.16 33.87 8.94L18.72 24.18L19.14 24.59C14.06 31.07 9.81 38.54 6.65 46.61C3.74 54.28 1.93 61.6 1.1 68.94C-6 127.78 20.89 181.56 93.87 254.54C194.74 355.41 276.03 347.79 279.54 347.42C287.18 346.5 294.5 344.68 301.94 341.79C309.93 338.67 317.4 334.43 323.88 329.36L324.21 329.65L339.56 314.63C350.63 303.53 350.95 285.8 340.27 275.08Z"
           class="shp0"
           id="Layer" />
      </g>
    </g>
  </g>
  <g
     id="g11" />
  <g
     id="g13" />
  <g
     id="g15" />
  <g
     id="g17" />
  <g
     id="g19" />
  <g
     id="g21" />
  <g
     id="g23" />
  <g
     id="g25" />
  <g
     id="g27" />
  <g
     id="g29" />
  <g
     id="g31" />
  <g
     id="g33" />
  <g
     id="g35" />
  <g
     id="g37" />
  <g
     id="g39" />
</svg>
