<?xml version="1.0" encoding="UTF-8" standalone="no"?>
<svg
   xmlns:dc="http://purl.org/dc/elements/1.1/"
   xmlns:cc="http://creativecommons.org/ns#"
   xmlns:rdf="http://www.w3.org/1999/02/22-rdf-syntax-ns#"
   xmlns:svg="http://www.w3.org/2000/svg"
   xmlns="http://www.w3.org/2000/svg"
   xmlns:xlink="http://www.w3.org/1999/xlink"
   xmlns:sodipodi="http://sodipodi.sourceforge.net/DTD/sodipodi-0.dtd"
   xmlns:inkscape="http://www.inkscape.org/namespaces/inkscape"
   inkscape:version="1.0 (4035a4fb49, 2020-05-01)"
   sodipodi:docname="envelope-svg.svg"
   id="svg41"
   version="1.1"
   height="512"
   width="512"
   viewBox="0 0 512 512">
  <metadata
     id="metadata47">
    <rdf:RDF>
      <cc:Work
         rdf:about="">
        <dc:format>image/svg+xml</dc:format>
        <dc:type
           rdf:resource="http://purl.org/dc/dcmitype/StillImage" />
      </cc:Work>
    </rdf:RDF>
  </metadata>
  <defs
     id="defs45">
    <linearGradient
       id="linearGradient53"
       inkscape:collect="always">
      <stop
         id="stop49"
         offset="0"
         style="stop-color:#fa0891;stop-opacity:1" />
      <stop
         id="stop51"
         offset="1"
         style="stop-color:#f36034;stop-opacity:1" />
    </linearGradient>
    <linearGradient
       gradientUnits="userSpaceOnUse"
       y2="512"
       x2="265.51675"
       y1="2.8550186"
       x1="265.51672"
       id="linearGradient55"
       xlink:href="#linearGradient53"
       inkscape:collect="always" />
  </defs>
  <sodipodi:namedview
     inkscape:current-layer="svg41"
     inkscape:window-maximized="1"
     inkscape:window-y="-8"
     inkscape:window-x="-8"
     inkscape:cy="301.50046"
     inkscape:cx="256"
     inkscape:zoom="1.0507812"
     showgrid="false"
     id="namedview43"
     inkscape:window-height="706"
     inkscape:window-width="1366"
     inkscape:pageshadow="2"
     inkscape:pageopacity="0"
     guidetolerance="10"
     gridtolerance="10"
     objecttolerance="10"
     borderopacity="1"
     bordercolor="#666666"
     pagecolor="#ffffff" />
  <style
     id="style2">
		tspan { white-space:pre }
		.shp0 { fill: #000000 } 
	</style>
  <g
     style="fill-opacity:1;fill:url(#linearGradient55)"
     id="g9">
    <g
       style="fill-opacity:1;fill:url(#linearGradient55)"
       id="g7">
      <path
         style="fill-opacity:1;fill:url(#linearGradient55)"
         d="M49.11 178.73C55.58 183.3 75.09 196.86 107.63 219.41C140.18 241.97 165.12 259.33 182.44 271.51C184.34 272.85 188.38 275.75 194.57 280.22C200.75 284.7 205.89 288.32 209.98 291.07C214.08 293.83 219.03 296.93 224.83 300.35C230.64 303.77 236.11 306.35 241.25 308.05C246.39 309.77 251.15 310.62 255.53 310.62L255.81 310.62L256.1 310.62C260.48 310.62 265.24 309.77 270.38 308.05C275.51 306.35 280.99 303.77 286.79 300.35C292.6 296.92 297.55 293.83 301.64 291.07C305.73 288.32 310.87 284.7 317.06 280.22C323.24 275.75 327.29 272.85 329.19 271.51C346.7 259.33 391.24 228.4 462.81 178.72C476.7 169.02 488.31 157.31 497.63 143.61C506.96 129.91 511.63 115.54 511.63 100.5C511.63 87.94 507.1 77.18 498.06 68.24C489.02 59.29 478.31 54.82 465.94 54.82L45.68 54.82C31.02 54.82 19.75 59.77 11.85 69.66C3.95 79.56 0 91.93 0 106.78C0 118.77 5.24 131.76 15.7 145.75C26.17 159.74 37.31 170.74 49.11 178.73Z"
         class="shp0"
         id="Layer" />
      <path
         style="fill-opacity:1;fill:url(#linearGradient55)"
         d="M483.07 209.28C420.65 251.53 373.25 284.36 340.89 307.78C330.05 315.77 321.25 322 314.49 326.48C307.73 330.95 298.74 335.52 287.51 340.18C276.28 344.85 265.81 347.17 256.1 347.17L255.81 347.17L255.53 347.17C245.82 347.17 235.35 344.85 224.12 340.18C212.89 335.52 203.9 330.95 197.14 326.48C190.39 322 181.58 315.77 170.73 307.78C145.04 288.93 97.74 256.1 28.84 209.28C17.99 202.05 8.38 193.76 0 184.44L0 411.12C0 423.69 4.47 434.44 13.42 443.39C22.36 452.34 33.12 456.81 45.68 456.81L465.95 456.81C478.51 456.81 489.26 452.34 498.21 443.39C507.16 434.44 511.63 423.69 511.63 411.12L511.63 184.44C503.44 193.57 493.93 201.85 483.07 209.28Z"
         class="shp0"
         id="path5" />
    </g>
  </g>
  <g
     id="g11" />
  <g
     id="g13" />
  <g
     id="g15" />
  <g
     id="g17" />
  <g
     id="g19" />
  <g
     id="g21" />
  <g
     id="g23" />
  <g
     id="g25" />
  <g
     id="g27" />
  <g
     id="g29" />
  <g
     id="g31" />
  <g
     id="g33" />
  <g
     id="g35" />
  <g
     id="g37" />
  <g
     id="g39" />
</svg>
