<?xml version="1.0" encoding="UTF-8" standalone="no"?>
<svg
   xmlns:dc="http://purl.org/dc/elements/1.1/"
   xmlns:cc="http://creativecommons.org/ns#"
   xmlns:rdf="http://www.w3.org/1999/02/22-rdf-syntax-ns#"
   xmlns:svg="http://www.w3.org/2000/svg"
   xmlns="http://www.w3.org/2000/svg"
   xmlns:sodipodi="http://sodipodi.sourceforge.net/DTD/sodipodi-0.dtd"
   xmlns:inkscape="http://www.inkscape.org/namespaces/inkscape"
   inkscape:version="1.0 (4035a4fb49, 2020-05-01)"
   sodipodi:docname="facebook-logo-svg.svg"
   id="svg37"
   version="1.1"
   height="302"
   width="302"
   viewBox="0 0 302 302">
  <metadata
     id="metadata43">
    <rdf:RDF>
      <cc:Work
         rdf:about="">
        <dc:format>image/svg+xml</dc:format>
        <dc:type
           rdf:resource="http://purl.org/dc/dcmitype/StillImage" />
        <dc:title />
      </cc:Work>
    </rdf:RDF>
  </metadata>
  <defs
     id="defs41" />
  <sodipodi:namedview
     inkscape:current-layer="svg37"
     inkscape:window-maximized="1"
     inkscape:window-y="-8"
     inkscape:window-x="-8"
     inkscape:cy="147.8432"
     inkscape:cx="252.20512"
     inkscape:zoom="1.386598"
     showgrid="false"
     id="namedview39"
     inkscape:window-height="706"
     inkscape:window-width="1366"
     inkscape:pageshadow="2"
     inkscape:pageopacity="0"
     guidetolerance="10"
     gridtolerance="10"
     objecttolerance="10"
     borderopacity="1"
     bordercolor="#666666"
     pagecolor="#ffffff"
     inkscape:document-rotation="0" />
  <style
     id="style2">
		tspan { white-space:pre }
		.shp0 { fill: #ffffff } 
	</style>
  <g
     id="g5"
     transform="matrix(2.5994084,0,0,2.5994084,11.823496,-0.27261239)">
    <path
       style="fill:#4d4d4d"
       d="M 72.09,0.02 59.62,0 c -14,0 -23.05,9.29 -23.05,23.66 v 10.9 H 24.04 c -1.09,0 -1.96,0.88 -1.96,1.96 v 15.81 c 0,1.08 0.87,1.96 1.96,1.96 h 12.53 v 39.87 c 0,1.09 0.88,1.96 1.96,1.96 h 16.35 c 1.09,0 1.96,-0.88 1.96,-1.96 V 54.29 H 71.5 c 1.08,0 1.96,-0.88 1.96,-1.96 V 36.52 c 0,-0.52 -0.2,-1.01 -0.57,-1.38 -0.37,-0.37 -0.87,-0.58 -1.39,-0.58 H 56.84 v -9.24 c 0,-4.45 1.06,-6.7 6.85,-6.7 l 8.4,-0.01 c 1.08,0 1.96,-0.87 1.96,-1.96 V 1.98 c 0,-1.08 -0.88,-1.96 -1.96,-1.96 z"
       class="shp0"
       id="Layer" />
  </g>
  <g
     id="g7" />
  <g
     id="g9" />
  <g
     id="g11" />
  <g
     id="g13" />
  <g
     id="g15" />
  <g
     id="g17" />
  <g
     id="g19" />
  <g
     id="g21" />
  <g
     id="g23" />
  <g
     id="g25" />
  <g
     id="g27" />
  <g
     id="g29" />
  <g
     id="g31" />
  <g
     id="g33" />
  <g
     id="g35" />
  <path
     id="path45"
     d="m 111.22155,249.13542 c -1.89048,-0.62281 -2.83168,-1.36694 -3.49379,-2.76223 -0.63966,-1.34799 -0.72421,-7.6048 -0.72421,-53.59448 V 140.71039 H 90.585171 c -18.077346,0 -18.981021,-0.12226 -20.340815,-2.75181 -0.634825,-1.22762 -0.734128,-4.30314 -0.734128,-22.73674 0,-12.71389 0.184428,-21.802187 0.456984,-22.519053 0.251336,-0.66108 1.147667,-1.62308 1.991833,-2.137767 1.458289,-0.889107 2.370606,-0.935883 18.289679,-0.937544 l 16.754826,-0.0018 4e-4,-15.114493 c 4.4e-4,-20.516528 0.70798,-27.337635 3.79944,-36.63359 4.58343,-13.782233 13.65073,-24.68251 25.72616,-30.9267091 4.85937,-2.5127767 10.6915,-4.599804 15.71928,-5.6251352 6.22328,-1.26913208 14.64407,-1.61659336 32.35622,-1.33509329 l 16.8203,0.26732601 1.29609,1.29608808 1.2961,1.296088 V 23.637738 c 0,22.784669 0.0847,22.075712 -2.81719,23.576337 -1.11017,0.574088 -3.80417,0.700324 -14.94581,0.700324 -8.14115,0 -14.58747,0.208315 -16.0751,0.519479 -3.41927,0.715199 -6.67187,2.563002 -8.06652,4.58258 -2.30226,3.333878 -2.61872,5.985787 -2.61872,21.944734 v 14.664525 h 19.47294 c 21.36489,0 21.49549,0.01589 22.93345,2.796668 1.08306,2.094401 1.062,43.437655 -0.0231,45.536195 -1.38416,2.67667 -2.01627,2.75181 -23.15281,2.75181 h -19.23045 v 52.06832 c 0,57.71723 0.18027,54.39677 -3.0362,55.9231 -1.352,0.64156 -4.39639,0.73433 -23.04562,0.70222 -11.8183,-0.0204 -21.80418,-0.14124 -22.19083,-0.26861 z"
     style="fill:#b2b9ca;stroke:#b2b9ca;stroke-width:0.488351;stroke-opacity:0" />
</svg>
