<?xml version="1.0" encoding="UTF-8" standalone="no"?>
<svg
   xmlns:dc="http://purl.org/dc/elements/1.1/"
   xmlns:cc="http://creativecommons.org/ns#"
   xmlns:rdf="http://www.w3.org/1999/02/22-rdf-syntax-ns#"
   xmlns:svg="http://www.w3.org/2000/svg"
   xmlns="http://www.w3.org/2000/svg"
   xmlns:sodipodi="http://sodipodi.sourceforge.net/DTD/sodipodi-0.dtd"
   xmlns:inkscape="http://www.inkscape.org/namespaces/inkscape"
   inkscape:version="1.0 (4035a4fb49, 2020-05-01)"
   sodipodi:docname="twitter-logo-silhouette-svg.svg"
   id="svg39"
   version="1.1"
   height="302"
   width="302"
   viewBox="0 0 302 302">
  <metadata
     id="metadata45">
    <rdf:RDF>
      <cc:Work
         rdf:about="">
        <dc:format>image/svg+xml</dc:format>
        <dc:type
           rdf:resource="http://purl.org/dc/dcmitype/StillImage" />
        <dc:title />
      </cc:Work>
    </rdf:RDF>
  </metadata>
  <defs
     id="defs43" />
  <sodipodi:namedview
     inkscape:current-layer="svg39"
     inkscape:window-maximized="1"
     inkscape:window-y="-8"
     inkscape:window-x="-8"
     inkscape:cy="206.43103"
     inkscape:cx="306"
     inkscape:zoom="0.87908497"
     showgrid="false"
     id="namedview41"
     inkscape:window-height="706"
     inkscape:window-width="1366"
     inkscape:pageshadow="2"
     inkscape:pageopacity="0"
     guidetolerance="10"
     gridtolerance="10"
     objecttolerance="10"
     borderopacity="1"
     bordercolor="#666666"
     pagecolor="#ffffff"
     inkscape:document-rotation="0" />
  <style
     id="style2">
		tspan { white-space:pre }
		.shp0 { fill: #ffffff } 
	</style>
  <g
     id="g7"
     transform="matrix(0.44254908,0,0,0.44254908,15.579982,15.579982)">
    <g
       id="g5">
      <path
         style="fill:#4d4d4d"
         d="m 612,116.26 c -22.52,9.98 -46.69,16.75 -72.09,19.77 C 565.84,120.5 585.69,95.88 595.1,66.62 570.77,81 543.93,91.44 515.32,97.1 492.41,72.66 459.83,57.44 423.69,57.44 c -69.33,0 -125.55,56.22 -125.55,125.51 0,9.83 1.11,19.43 3.25,28.61 C 197.06,206.32 104.56,156.34 42.64,80.39 31.82,98.9 25.66,120.46 25.66,143.49 c 0,43.56 22.18,81.99 55.84,104.48 -20.58,-0.69 -39.93,-6.35 -56.87,-15.76 v 1.57 c 0,60.8 43.29,111.55 100.69,123.1 -10.51,2.83 -21.6,4.4 -33.08,4.4 -8.1,0 -15.94,-0.8 -23.63,-2.33 15.98,49.9 62.33,86.2 117.25,87.19 -42.95,33.66 -97.1,53.66 -155.92,53.66 -10.13,0 -20.11,-0.62 -29.94,-1.72 55.57,35.68 121.54,56.48 192.44,56.48 230.95,0 357.19,-191.29 357.19,-357.19 l -0.42,-16.25 c 24.66,-17.59 46,-39.7 62.79,-64.86 z"
         class="shp0"
         id="Layer" />
    </g>
  </g>
  <g
     id="g9" />
  <g
     id="g11" />
  <g
     id="g13" />
  <g
     id="g15" />
  <g
     id="g17" />
  <g
     id="g19" />
  <g
     id="g21" />
  <g
     id="g23" />
  <g
     id="g25" />
  <g
     id="g27" />
  <g
     id="g29" />
  <g
     id="g31" />
  <g
     id="g33" />
  <g
     id="g35" />
  <g
     id="g37" />
  <path
     id="path47"
     d="m 87.145847,260.11988 c -18.451872,-1.59998 -37.379375,-6.73116 -53.755712,-14.57297 -6.974392,-3.33969 -16.219685,-8.3768 -16.219685,-8.83695 0,-0.12466 3.001643,-0.0814 6.670317,0.0961 19.000769,0.91931 39.648822,-3.70075 56.702814,-12.68739 4.746804,-2.50133 13.028039,-7.73338 16.140872,-10.19773 l 1.232176,-0.97552 -2.994146,-0.3076 c -13.511324,-1.38809 -24.636216,-6.20303 -33.827022,-14.6406 -6.071924,-5.5743 -11.980877,-14.32645 -14.507779,-21.48845 l -0.664676,-1.88389 1.607311,0.35922 c 4.56565,1.02038 21.900919,-0.0273 22.733176,-1.37399 0.121794,-0.19706 -1.624487,-0.89168 -3.880611,-1.54359 -17.305604,-5.00054 -31.408058,-18.52367 -37.109942,-35.58549 -1.474025,-4.41074 -3.0316,-12.66713 -3.037961,-16.10361 l -0.003,-1.60335 3.747247,1.73133 c 2.060985,0.95223 5.855514,2.30391 8.432287,3.00372 4.781679,1.29863 13.680902,2.27925 12.739763,1.40381 -0.27688,-0.25755 -1.823675,-1.46026 -3.437322,-2.67269 C 41.534339,117.59711 34.382898,108.2459 31.242344,100.70195 25.033983,85.788797 25.444931,69.183571 32.374063,54.972323 l 1.611286,-3.304653 2.996201,3.441084 c 7.520457,8.63712 18.984964,18.965927 28.517235,25.692264 22.587934,15.938918 51.668845,26.436432 78.019905,28.163312 l 5.18224,0.33962 -0.34049,-1.71631 c -0.18727,-0.94397 -0.46585,-5.11439 -0.61906,-9.267612 -0.23844,-6.463158 -0.12473,-8.29809 0.78909,-12.733724 5.13573,-24.928773 26.31027,-43.067991 51.6332,-44.231671 14.88279,-0.683917 29.05645,4.479163 39.74543,14.478176 l 3.23554,3.026688 6.14666,-1.559051 c 7.94433,-2.015016 14.26593,-4.372315 22.23218,-8.290298 3.53024,-1.736249 6.41535,-3.018571 6.41137,-2.849604 -0.0244,1.034004 -5.31222,10.954777 -7.40859,13.899555 -3.2333,4.54181 -8.94746,10.201933 -13.30551,13.179656 -1.89031,1.291592 -3.34432,2.440976 -3.23112,2.55418 0.8512,0.8512 17.5957,-3.039374 25.28081,-5.87398 2.98969,-1.102726 5.49033,-1.950424 5.557,-1.883767 0.0666,0.06665 -1.61461,2.377002 -3.73614,5.134113 -4.71536,6.128012 -12.95438,14.431744 -18.92665,19.075287 l -4.45046,3.46034 0.33679,3.824154 c 0.71975,8.172408 -1.37619,27.369418 -4.29185,39.309438 -9.60747,39.34413 -32.62607,73.38391 -64.41899,95.26247 -28.46157,19.58607 -66.03885,29.15296 -102.194293,26.01789 z"
     style="fill:#b2b9ca;stroke:#b2b9ca;stroke-width:0.524562;stroke-opacity:0" />
</svg>
