<?xml version="1.0" encoding="UTF-8" standalone="no"?>
<svg
   xmlns:dc="http://purl.org/dc/elements/1.1/"
   xmlns:cc="http://creativecommons.org/ns#"
   xmlns:rdf="http://www.w3.org/1999/02/22-rdf-syntax-ns#"
   xmlns:svg="http://www.w3.org/2000/svg"
   xmlns="http://www.w3.org/2000/svg"
   xmlns:sodipodi="http://sodipodi.sourceforge.net/DTD/sodipodi-0.dtd"
   xmlns:inkscape="http://www.inkscape.org/namespaces/inkscape"
   inkscape:version="1.0 (4035a4fb49, 2020-05-01)"
   sodipodi:docname="vk-svg.svg"
   id="svg35"
   version="1.1"
   height="305"
   width="305"
   viewBox="0 0 305 305">
  <metadata
     id="metadata41">
    <rdf:RDF>
      <cc:Work
         rdf:about="">
        <dc:format>image/svg+xml</dc:format>
        <dc:type
           rdf:resource="http://purl.org/dc/dcmitype/StillImage" />
      </cc:Work>
    </rdf:RDF>
  </metadata>
  <defs
     id="defs39" />
  <sodipodi:namedview
     inkscape:current-layer="svg35"
     inkscape:window-maximized="1"
     inkscape:window-y="-8"
     inkscape:window-x="-8"
     inkscape:cy="152.5"
     inkscape:cx="152.5"
     inkscape:zoom="1.7639344"
     showgrid="false"
     id="namedview37"
     inkscape:window-height="706"
     inkscape:window-width="1366"
     inkscape:pageshadow="2"
     inkscape:pageopacity="0"
     guidetolerance="10"
     gridtolerance="10"
     objecttolerance="10"
     borderopacity="1"
     bordercolor="#666666"
     pagecolor="#ffffff" />
  <style
     id="style2">
		tspan { white-space:pre }
		.shp0 { fill: #ffffff } 
	</style>
  <g
     id="XMLID_1_">
    <path
       style="fill:#000000"
       d="m 261.94,175.58 c 10.1,9.85 20.76,19.13 29.81,29.98 4,4.82 7.79,9.8 10.69,15.39 4.1,7.96 0.38,16.71 -6.75,17.19 l -44.34,-0.02 c -11.44,0.94 -20.56,-3.66 -28.23,-11.48 -6.14,-6.25 -11.82,-12.91 -17.73,-19.37 -2.42,-2.64 -4.95,-5.13 -7.98,-7.09 -6.05,-3.93 -11.3,-2.73 -14.76,3.58 -3.52,6.42 -4.32,13.53 -4.67,20.69 -0.47,10.44 -3.63,13.19 -14.12,13.66 -22.41,1.06 -43.68,-2.33 -63.45,-13.64 C 82.99,214.51 69.48,200.43 57.72,184.5 34.83,153.48 17.3,119.39 1.54,84.35 -2.01,76.46 0.58,72.22 9.29,72.07 23.76,71.79 38.22,71.81 52.7,72.05 c 5.88,0.09 9.78,3.46 12.05,9.01 7.82,19.24 17.4,37.55 29.42,54.52 3.2,4.52 6.46,9.04 11.11,12.22 5.14,3.52 9.06,2.35 11.48,-3.37 1.53,-3.64 2.2,-7.55 2.55,-11.44 1.15,-13.38 1.3,-26.74 -0.71,-40.08 -1.24,-8.32 -5.93,-13.71 -14.23,-15.28 -4.24,-0.81 -3.61,-2.38 -1.56,-4.8 3.57,-4.17 6.92,-6.77 13.6,-6.77 h 50.11 c 7.89,1.55 9.64,5.1 10.72,13.04 l 0.05,55.66 c -0.09,3.07 1.53,12.19 7.07,14.23 4.43,1.44 7.35,-2.1 10.01,-4.91 11.99,-12.73 20.56,-27.78 28.21,-43.37 3.39,-6.85 6.31,-13.96 9.14,-21.07 2.1,-5.28 5.38,-7.88 11.33,-7.76 l 48.23,0.04 c 1.43,0 2.87,0.02 4.26,0.26 8.13,1.39 10.35,4.88 7.84,12.82 -3.95,12.45 -11.65,22.82 -19.17,33.25 -8.04,11.13 -16.65,21.88 -24.62,33.07 -7.33,10.22 -6.75,15.38 2.35,24.26 z"
       class="shp0"
       fill-rule="evenodd"
       id="XMLID_807_" />
  </g>
  <g
     id="Layer" />
  <g
     id="g7" />
  <g
     id="g9" />
  <g
     id="g11" />
  <g
     id="g13" />
  <g
     id="g15" />
  <g
     id="g17" />
  <g
     id="g19" />
  <g
     id="g21" />
  <g
     id="g23" />
  <g
     id="g25" />
  <g
     id="g27" />
  <g
     id="g29" />
  <g
     id="g31" />
  <g
     id="g33" />
  <path
     id="path43"
     d="M 143.74888,237.49146 C 121.77596,235.40284 101.99346,227.22621 84.606076,213.04618 63.986987,196.23059 40.604281,162.74616 17.582871,117.06784 5.5069825,93.107266 0.5669145,81.939388 0.5669145,78.600328 c 0,-3.184882 1.6992867,-5.171778 5.0295413,-5.880807 1.1312892,-0.240857 12.7715742,-0.437922 25.8672992,-0.437922 23.31458,0 23.85763,0.02548 26.078067,1.223637 3.763178,2.030629 5.22029,4.122671 9.29865,13.350495 7.620873,17.243229 14.534333,30.115289 23.218953,43.231009 9.492887,14.33639 15.009915,19.69915 20.380785,19.81091 2.1415,0.0446 2.71018,-0.21921 4.36499,-2.02465 3.8991,-4.25397 5.37938,-13.38443 5.3802,-33.18551 0.001,-25.423992 -2.97726,-33.593332 -13.3656,-36.661013 -6.31938,-1.866119 -6.4254,-2.201167 -2.07366,-6.552917 5.31266,-5.312657 4.61033,-5.21671 36.77461,-5.023833 l 27.13631,0.162727 2.51503,1.417286 c 1.81198,1.021096 2.92131,2.209667 3.96841,4.251859 l 1.45337,2.834572 0.28858,32.030669 c 0.28666,31.81794 0.29728,32.05229 1.59803,35.28583 2.30665,5.73415 6.32511,8.31314 10.35329,6.64462 3.98344,-1.65 14.40432,-14.12137 22.20821,-26.57806 5.37117,-8.57355 14.23706,-26.180946 18.84026,-37.416186 3.93468,-9.603557 5.4668,-11.514186 10.03629,-12.51566 4.34436,-0.952138 55.42336,-0.508802 58.51728,0.507895 1.22264,0.401773 2.97843,1.485947 3.90176,2.409275 1.58222,1.58222 1.66254,1.880766 1.39644,5.190514 -0.53712,6.680691 -5.75825,17.401234 -14.59306,29.963952 -2.77605,3.94743 -10.93567,15.04478 -18.13249,24.66079 -14.66923,19.60026 -16.4701,22.59452 -16.4514,27.35347 0.0223,5.68162 0.82246,6.72126 19.19676,24.94284 28.72419,28.48546 34.67718,38.87588 27.17113,47.42479 -0.92806,1.057 -2.62305,2.18169 -3.76666,2.49933 -1.26522,0.35141 -11.62341,0.57491 -26.45662,0.57084 -26.68677,-0.007 -29.18812,-0.23846 -35.66597,-3.29595 -5.81359,-2.74395 -10.05956,-6.48403 -21.00505,-18.50234 -14.98275,-16.4513 -17.5104,-18.43963 -23.44127,-18.43963 -2.57458,0 -3.21557,0.2513 -5.18931,2.03445 -4.16599,3.76372 -6.45753,10.38648 -7.43662,21.4925 -0.32986,3.74164 -0.85959,7.80801 -1.17719,9.03639 -0.72942,2.82124 -3.55266,5.67603 -6.45505,6.52719 -2.98901,0.87656 -19.53617,1.21754 -26.58233,0.54777 z"
     style="fill:#b2b9ca;stroke:#b2b9ca;stroke-width:0.590725;stroke-opacity:0" />
</svg>
